HIERARCHY
ROOT Hips
{
    OFFSET 0.0 0.0 0.0
    CHANNELS 6 Xposition Yposition Zposition Zrotation Xrotation Yrotation
    JOINT LeftHipJoint
    {
        OFFSET 0.1 0.0 0.0
        CHANNELS 3 Zrotation Xrotation Yrotation
        JOINT LeftUpLeg
        {
            OFFSET 121.1840618117165 0.0 0.0
            CHANNELS 3 Zrotation Xrotation Yrotation
            JOINT LeftLeg
            {
                OFFSET 0.0 0.0 -403.94399432604695
                CHANNELS 3 Zrotation Xrotation Yrotation
                JOINT LeftFoot
                {
                    OFFSET 0.0 0.0 -391.9309216683056
                    CHANNELS 3 Zrotation Xrotation Yrotation
                    End Site
                    {
                        OFFSET 0.0 -0.1 0.0
                    }
                }
            }
        }
    }
    JOINT LowerBack
    {
        OFFSET 0.0 0.0 0.1
        CHANNELS 3 Zrotation Xrotation Yrotation
        JOINT Spine
        {
            OFFSET 0.0 0.0 219.11676909882672
            CHANNELS 3 Zrotation Xrotation Yrotation
            JOINT Spine1
            {
                OFFSET 0.0 0.0 255.38866439574144
                CHANNELS 3 Zrotation Xrotation Yrotation
                JOINT LeftShoulder
                {
                    OFFSET 0.1 0.0 0.0
                    CHANNELS 3 Zrotation Xrotation Yrotation
                    JOINT LeftArm
                    {
                        OFFSET 143.76019908005915 0.0 0.0
                        CHANNELS 3 Zrotation Xrotation Yrotation
                        JOINT LeftForeArm
                        {
                            OFFSET 257.88188655290446 0.0 0.0
                            CHANNELS 3 Zrotation Xrotation Yrotation
                            JOINT LeftHand
                            {
                                OFFSET 237.71628194369612 0.0 0.0
                                CHANNELS 3 Zrotation Xrotation Yrotation
                                End Site
                                {
                                    OFFSET 0.1 0.0 0.0
                                }
                            }
                        }
                    }
                }
                JOINT Neck
                {
                    OFFSET 0.0 0.0 0.1
                    CHANNELS 3 Zrotation Xrotation Yrotation
                    JOINT Neck1
                    {
                        OFFSET 0.0 0.0 108.80581739865049
                        CHANNELS 3 Zrotation Xrotation Yrotation
                        End Site
                        {
                            OFFSET 0.0 0.0 114.66901877192305
                        }
                    }
                }
                JOINT RightShoulder
                {
                    OFFSET -0.1 0.0 0.0
                    CHANNELS 3 Zrotation Xrotation Yrotation
                    JOINT RightArm
                    {
                        OFFSET -143.76019908005915 0.0 0.0
                        CHANNELS 3 Zrotation Xrotation Yrotation
                        JOINT RightForeArm
                        {
                            OFFSET -257.88188655290446 0.0 0.0
                            CHANNELS 3 Zrotation Xrotation Yrotation
                            JOINT RightHand
                            {
                                OFFSET -237.71628194369612 0.0 0.0
                                CHANNELS 3 Zrotation Xrotation Yrotation
                                End Site
                                {
                                    OFFSET -0.1 0.0 0.0
                                }
                            }
                        }
                    }
                }
            }
        }
    }
    JOINT RightHipJoint
    {
        OFFSET -0.1 0.0 0.0
        CHANNELS 3 Zrotation Xrotation Yrotation
        JOINT RightUpLeg
        {
            OFFSET -121.1840618117165 0.0 0.0
            CHANNELS 3 Zrotation Xrotation Yrotation
            JOINT RightLeg
            {
                OFFSET 0.0 0.0 -403.94399432604695
                CHANNELS 3 Zrotation Xrotation Yrotation
                JOINT RightFoot
                {
                    OFFSET 0.0 0.0 -391.9309216683056
                    CHANNELS 3 Zrotation Xrotation Yrotation
                    End Site
                    {
                        OFFSET 0.0 -0.1 0.0
                    }
                }
            }
        }
    }
}
MOTION
Frames: 8
Frame Time: 0.03333333333333333
0.0 0.0 799.2522320552885 24.04764488369377 0.2807157011564198 6.823597571390361 -6.034637516865451e-34 -1.987846675914698e-16 -3.4787316828507215e-16 -0.5514264660189786 -13.695514700623242 0.5645207889188976 1.0183481411930986 19.365857592950622 -0.7232273826341039 0.0 0.0 0.0 -6.034637516865451e-34 -1.987846675914698e-16 -3.4787316828507215e-16 0.03515058728570658 0.8885859425141134 -5.082659250785912 2.3062268780719 -1.6501632838421715e-17 -8.198206953629683e-16 0.0 0.0 7.454425034680117e-17 -45.12014312402906 8.71119502261221 77.78018661751648 -18.240505212811183 -2.2003483570769862e-15 3.6733617784985365e-15 3.1805546814635168e-15 4.4139062980501586e-32 1.5902773407317584e-15 0.0 0.0 7.454425034680117e-17 -6.4307473071292645 -3.7294571421965435 -1.510107279590875 0.0 0.0 7.454425034680117e-17 23.009460076625896 1.8473983902506417 -70.39179794785733 26.487820089754873 3.0959634234281845e-15 -7.286553112235764e-16 -8.827812596100317e-32 6.361109362927035e-15 1.5902773407317588e-15 -6.034637516865451e-34 -1.987846675914698e-16 -3.4787316828507215e-16 -0.5052800948650232 -12.54836047572161 -0.8857617129418708 0.5894090455612774 22.30890484322002 -0.31845975596826853 0.0 0.0 0.0
0.0 0.0 799.2522320552885 24.102044496152654 0.340336969219774 6.788645110482547 6.034637516865451e-34 1.987846675914698e-16 -3.4787316828507215e-16 -0.542844755352624 -13.826003914004275 0.5780684460897965 1.0146262111877093 19.572047157297455 -0.8241043135162949 0.0 0.0 1.3914926731402886e-15 6.034637516865451e-34 1.987846675914698e-16 -3.4787316828507215e-16 0.030664205597731732 0.7950413630852828 -5.110318076660742 2.202871229331575 -8.934348432889015e-17 5.236239065912651e-16 0.0 0.0 -4.969616689786745e-17 -45.24986082828591 8.880691861739919 77.72553961220143 -18.458718579991498 -4.159619080190786e-15 5.768640179159226e-15 0.0 0.0 -1.987846675914698e-16 0.0 0.0 -4.969616689786745e-17 -6.436370042083812 -3.636595267335097 -1.55560898780793 0.0 0.0 -4.969616689786745e-17 22.36069742403957 1.7040272242712762 -70.58910518239068 26.683193785934254 -1.0336053849048306e-14 2.533267985984223e-14 0.0 0.0 1.5902773407317584e-15 6.034637516865451e-34 1.987846675914698e-16 -3.4787316828507215e-16 -0.505240666698454 -12.855124574918742 -0.9111065573560155 0.5649206638154002 22.618175462469104 -0.10158347393781766 -3.1805546814635168e-15 1.7890620083232284e-15 7.951386703658792e-16
0.0 0.0 799.2522320552885 24.21204515065281 0.4940911415223321 6.807004096741824 -6.465683053784412e-34 1.987846675914698e-16 3.7272125173400585e-16 -0.5367418970316369 -13.979115858478638 0.5308815350979739 0.9856128817564973 19.673962071609065 -0.841161286115913 0.0 0.0 3.975693351829396e-16 -6.465683053784412e-34 1.987846675914698e-16 3.7272125173400585e-16 0.023795332319406604 0.6311824025113173 -5.188821235736058 1.9423523336867967 4.488858931138909e-16 9.179716952228844e-17 0.0 0.0 -9.93923337957349e-17 -45.36758979835538 9.164177377893125 77.7286993178993 -18.711625845573835 2.3626758009828054e-15 5.22441664927613e-15 -3.1805546814635168e-15 3.1805546814635168e-15 1.1927080055488188e-15 0.0 0.0 -9.93923337957349e-17 -6.4262599342722835 -3.538718981831017 -1.6535781817341813 0.0 0.0 -9.93923337957349e-17 22.15389982741851 2.038199676931039 -70.97464625634987 27.107559120451445 -7.674731434559607e-15 -4.6931782473733675e-15 0.0 0.0 3.1805546814635168e-15 -6.465683053784412e-34 1.987846675914698e-16 3.7272125173400585e-16 -0.5042348023171577 -13.116383355253403 -0.9617762158377278 0.5296672691336106 22.85672694031559 0.0843778026737764 -2.069018577211012e-33 1.987846675914698e-16 1.1927080055488188e-15
0.0 0.0 799.2522320552885 24.091333843695228 0.5864333612134285 6.824901703521774 0.0 0.0 9.93923337957349e-17 -0.5277188784973507 -14.09196663268393 0.41428519015558724 0.9377835925597628 19.939705623090063 -0.7580596203915763 0.0 0.0 1.987846675914698e-16 0.0 0.0 9.93923337957349e-17 0.01687486070676727 0.45913177413841 -5.19626492277732 1.7415223426954598 -1.8880896238706164e-18 -1.2422606970640901e-16 0.0 0.0 9.93923337957349e-17 -45.038249168377206 9.549188031478957 77.915202461019 -18.77700533176789 -2.8785321420155647e-15 -2.0878129249546387e-15 -3.1805546814635168e-15 7.172597734331508e-32 -2.5842006786891076e-15 0.0 0.0 9.93923337957349e-17 -6.443253403793523 -3.4483937117391474 -1.709022161386239 0.0 0.0 9.93923337957349e-17 22.028517784395767 2.7602440984563628 -71.52412928249669 27.905191357679623 4.620498672028062e-15 5.406536084285793e-15 -8.827812596100317e-32 6.361109362927033e-15 1.5902773407317582e-15 0.0 0.0 9.93923337957349e-17 -0.5009377645268467 -13.357866080473409 -1.083479191499865 0.46449188936758734 23.244901204775985 0.2518042798550876 -3.1805546814635168e-15 -1.987846675914698e-16 -3.975693351829396e-16
0.0 0.0 799.2522320552885 23.958899210459734 0.6844319551573904 6.776193793879293 2.586273221513765e-34 -1.9878466759146977e-16 1.4908850069360232e-16 -0.5169591791041385 -14.195207940675996 0.3859882266113096 0.908446989752248 19.991173344131898 -0.7224134073644628 0.0 0.0 0.0 2.586273221513765e-34 -1.9878466759146977e-16 1.4908850069360232e-16 0.009715075085313805 0.2718946305090615 -5.100132549190902 1.5793620832743753 -2.059574205742292e-16 -5.190205224347328e-16 0.0 0.0 9.939233379573489e-17 -44.855481665605254 9.95501085305481 78.11146007828077 -18.819518628767636 1.0666259120116597e-15 2.2744309691767406e-14 -3.1805546814635168e-15 8.827812596100317e-32 -3.1805546814635168e-15 0.0 0.0 9.939233379573489e-17 -6.473119916328409 -3.333416743496179 -1.8055393424962065 0.0 0.0 9.939233379573489e-17 22.05585192279533 3.4564517242670614 -72.17513307524656 28.497521550180632 -7.828373341469185e-16 -3.082708839648214e-15 0.0 0.0 1.5902773407317584e-15 2.586273221513765e-34 -1.9878466759146977e-16 1.4908850069360232e-16 -0.4970369679551812 -13.623193948333904 -1.1041809576267037 0.43668986159473244 23.529331370316847 0.3836344424569639 1.3793457181406746e-33 1.987846675914698e-16 -7.951386703658792e-16
0.0 0.0 799.2522320552885 23.92152593441171 0.9181171990436957 6.808145090325206 0.0 0.0 -1.2424041724466862e-16 -0.5162031722358803 -14.614658389610334 0.29201999853190963 0.862651633416012 20.233911812279906 -0.6761865641574328 -2.069018577211012e-33 -1.987846675914698e-16 -1.1927080055488188e-15 0.0 0.0 -1.2424041724466862e-16 0.0007055216676371273 0.020386835619154407 -5.146469876065124 1.4144462200118277 -2.0551695406705635e-16 -5.441625815743626e-16 0.0 0.0 2.4848083448933725e-17 -44.115760681504476 10.223344478562252 78.39443741620637 -18.80399675479917 4.5870332368827516e-15 1.1237096100623456e-14 0.0 0.0 -6.162324695335565e-15 0.0 0.0 2.4848083448933725e-17 -6.389752307217899 -3.2703741862898763 -1.7572334377005052 0.0 0.0 2.4848083448933725e-17 21.787646778205886 4.290008865663957 -72.62153831330272 29.549936894968567 -6.420422307846749e-16 1.0037283626145271e-14 6.3611093629270335e-15 6.3611093629270335e-15 3.1805546814635164e-15 0.0 0.0 -1.2424041724466862e-16 -0.4927293685630661 -13.932967428489018 -1.2285760355121973 0.35516129064874946 23.546353008031133 0.6366123954437074 1.3793457181406746e-33 -1.987846675914698e-16 7.951386703658792e-16
0.0 0.0 799.2522320552885 23.93616410256504 1.124081892754136 6.851929862258652 -1.939704916135324e-34 1.987846675914698e-16 1.1181637552020177e-16 -0.5228140557634743 -14.988339763649824 0.14201166840774126 0.8159580753046448 20.64458917048991 -0.6163966979651198 0.0 0.0 0.0 -1.939704916135324e-34 1.987846675914698e-16 1.1181637552020177e-16 -0.0050783422244136565 -0.14876537928710606 -5.206990232015533 1.377493038702316 -2.1012048720762284e-16 -9.41769438605901e-16 0.0 0.0 1.7393658414253607e-16 -42.71349411667341 10.294240384237922 78.58107394947676 -18.73948719763994 -1.6467318033537915e-14 2.1181305462148098e-15 0.0 0.0 -5.963540027744094e-16 0.0 0.0 1.7393658414253607e-16 -6.346442121543017 -3.3264124662700376 -1.7722231363460939 0.0 0.0 1.7393658414253607e-16 21.145536488097754 4.703421455110759 -72.83642922269124 30.548783278512705 1.1151555003042652e-14 -1.9530469147029957e-14 -6.3611093629270335e-15 1.3241718894150476e-31 -2.3854160110976376e-15 -1.939704916135324e-34 1.987846675914698e-16 1.1181637552020177e-16 -0.4996931819875447 -14.30865573437914 -1.4160819448780433 0.26590359539288766 23.79265283963907 0.9795788358201327 0.0 0.0 3.975693351829396e-16
0.0 0.0 799.2522320552885 23.943504522090965 1.361692470648548 6.854987271978847 0.0 0.0 -2.2363275104040355e-16 -0.5352120250883977 -15.325405109561618 0.05648244158886091 0.8017063136839543 21.042815766614495 -0.6822163774193906 0.0 0.0 1.987846675914698e-16 0.0 0.0 -2.2363275104040355e-16 -0.009216219499006691 -0.2698976934816421 -5.175162403286191 1.3021203551555098 1.5077295317046976e-16 1.4738479796229962e-16 0.0 0.0 -2.4848083448933725e-17 -41.33862923800782 10.235816848822646 78.59168426803738 -18.7846048625319 -9.065702960911814e-15 1.582820984474534e-14 0.0 0.0 -1.3914926731402886e-15 0.0 0.0 -2.4848083448933725e-17 -6.33163534155252 -3.4700438771075723 -1.867819237626632 0.0 0.0 -2.4848083448933725e-17 20.682495239270853 4.96174199995982 -72.94359464850902 31.577178335842817 -4.010114507231114e-16 -1.31076301140458e-14 0.0 0.0 2.3854160110976376e-15 0.0 0.0 -2.2363275104040355e-16 -0.515917126556136 -14.746500536617013 -1.5455482680351371 0.21487549946704051 24.19351126206808 1.2087608181020588 0.0 0.0 0.0
